# xmcd CD database file
#
# Track frame offsets:
#	183
#	13893
#	62968
#	84755
#	108653
#	163270
#	193623
#	215060
#	241778
#
# Disc length: 3444 seconds
#
# Revision: 0
# Processed by: cddbd v1.4PL0 Copyright (c) Steve Scherf et al.
# Submitted via: CDex 1.50
#
DISCID=7b0d7209
DTITLE=Daniel Wayenberg, Louis van DIjk and Toots Thielemans - Daniel Wayenberg, Louis Van Dijk and Toots Thielemans
DYEAR=1986
DGENRE=Jazz
TTITLE0=Strike Up The Band
TTITLE1=How High The Moon - Fly Me To The Moon
TTITLE2=Honeysuckle Rose
TTITLE3=Lady Be Good
TTITLE4=Beatle Medley
TTITLE5=My Funny Valentine
TTITLE6=Sweet Georgia Brown
TTITLE7=Take Five
TTITLE8=Bye Bye Blackbird
EXTD=YEAR: 1986
EXTT0=
EXTT1=
EXTT2=
EXTT3=
EXTT4=
EXTT5=
EXTT6=
EXTT7=
EXTT8=
PLAYORDER=
